<svg width="186" height="40" viewBox="0 0 186 40" fill="none" xmlns="http://www.w3.org/2000/svg">
<path d="M10.56 35.4C9.04 35.4 7.62667 35.2 6.32 34.8C5.04 34.4 3.86667 33.8 2.8 33C1.76 32.1733 0.826667 31.16 2.98023e-08 29.96L2.96 26.56C4.26667 28.4267 5.52 29.72 6.72 30.44C7.92 31.16 9.34667 31.52 11 31.52C12.0133 31.52 12.9333 31.36 13.76 31.04C14.5867 30.72 15.24 30.28 15.72 29.72C16.2 29.16 16.44 28.52 16.44 27.8C16.44 27.32 16.36 26.8667 16.2 26.44C16.04 26.0133 15.7867 25.6267 15.44 25.28C15.12 24.9333 14.6933 24.6133 14.16 24.32C13.6533 24.0267 13.0533 23.7733 12.36 23.56C11.6667 23.32 10.8667 23.12 9.96 22.96C8.52 22.6667 7.26667 22.28 6.2 21.8C5.13333 21.32 4.24 20.72 3.52 20C2.8 19.28 2.26667 18.4667 1.92 17.56C1.57333 16.6267 1.4 15.5867 1.4 14.44C1.4 13.32 1.64 12.28 2.12 11.32C2.62667 10.36 3.30667 9.53333 4.16 8.84C5.04 8.12 6.06667 7.57333 7.24 7.2C8.41333 6.8 9.68 6.6 11.04 6.6C12.48 6.6 13.8 6.78667 15 7.16C16.2 7.53333 17.2667 8.09333 18.2 8.84C19.1333 9.56 19.9067 10.4533 20.52 11.52L17.48 14.52C16.9467 13.64 16.3467 12.9067 15.68 12.32C15.0133 11.7067 14.28 11.2533 13.48 10.96C12.68 10.64 11.8267 10.48 10.92 10.48C9.88 10.48 8.97333 10.64 8.2 10.96C7.42667 11.28 6.81333 11.7333 6.36 12.32C5.93333 12.88 5.72 13.5467 5.72 14.32C5.72 14.88 5.82667 15.4 6.04 15.88C6.25333 16.3333 6.57333 16.7467 7 17.12C7.45333 17.4667 8.05333 17.7867 8.8 18.08C9.54667 18.3467 10.44 18.5867 11.48 18.8C12.9467 19.12 14.2533 19.5333 15.4 20.04C16.5467 20.52 17.52 21.0933 18.32 21.76C19.12 22.4267 19.72 23.1733 20.12 24C20.5467 24.8267 20.76 25.72 20.76 26.68C20.76 28.4667 20.3467 30.0133 19.52 31.32C18.6933 32.6267 17.52 33.64 16 34.36C14.48 35.0533 12.6667 35.4 10.56 35.4ZM33.815 35V21.04L34.095 23L22.775 7H27.975L36.615 19.4L35.615 19.28L43.415 7H48.375L37.535 23.44L38.135 20.72V35H33.815ZM52.7013 35V7H56.5813L73.7013 29.92L73.0613 30.28C72.9546 29.6133 72.8613 28.8933 72.7813 28.12C72.7013 27.32 72.6213 26.48 72.5413 25.6C72.4879 24.6933 72.4346 23.7467 72.3813 22.76C72.3546 21.7467 72.3279 20.6933 72.3012 19.6C72.2746 18.5067 72.2613 17.3733 72.2613 16.2V7H76.5813V35H72.6213L55.7813 12.92L56.2213 12.36C56.3546 13.9867 56.4613 15.3733 56.5413 16.52C56.6479 17.64 56.7279 18.6 56.7813 19.4C56.8613 20.1733 56.9146 20.8133 56.9413 21.32C56.9679 21.8 56.9813 22.2 56.9813 22.52C57.0079 22.84 57.0213 23.12 57.0213 23.36V35H52.7013ZM89.74 35V11.16H81.9V7H102.14V11.16H94.06V35H89.74ZM125.747 35V7H130.067V35H125.747ZM107.467 35V7H111.787V35H107.467ZM109.347 23.12V18.96H127.667V23.12H109.347Z" fill="#003378"/>
<path d="M180.744 29.1747C179.522 27.9516 178.094 26.9532 176.526 26.2255C178.737 24.4335 180.149 21.6991 180.149 18.6327C180.149 13.2226 175.637 8.78411 170.227 8.86711C164.9 8.95012 160.608 13.2909 160.608 18.6327C160.608 21.6991 162.024 24.4335 164.231 26.2255C162.662 26.9527 161.234 27.9511 160.012 29.1747C157.346 31.8456 155.832 35.371 155.734 39.1308C155.733 39.1829 155.742 39.2347 155.761 39.2833C155.78 39.3318 155.809 39.376 155.845 39.4133C155.882 39.4506 155.925 39.4803 155.973 39.5005C156.021 39.5208 156.073 39.5312 156.125 39.5312H158.859C159.069 39.5312 159.245 39.3652 159.25 39.1552C159.343 36.3232 160.49 33.6718 162.507 31.6601C163.539 30.6227 164.766 29.8002 166.118 29.2403C167.47 28.6805 168.92 28.3943 170.383 28.3984C173.357 28.3984 176.154 29.5556 178.259 31.6601C180.271 33.6718 181.418 36.3232 181.516 39.1552C181.521 39.3652 181.696 39.5312 181.906 39.5312H184.641C184.693 39.5312 184.744 39.5208 184.793 39.5005C184.841 39.4803 184.884 39.4506 184.92 39.4133C184.957 39.376 184.985 39.3318 185.004 39.2833C185.024 39.2347 185.033 39.1829 185.031 39.1308C184.934 35.371 183.42 31.8456 180.744 29.1747ZM170.383 24.8827C168.713 24.8827 167.141 24.2333 165.964 23.0517C165.373 22.4658 164.907 21.7669 164.592 20.9968C164.278 20.2267 164.122 19.4011 164.133 18.5693C164.148 16.9677 164.787 15.4198 165.905 14.2724C167.077 13.0712 168.645 12.4023 170.319 12.3827C171.975 12.3681 173.581 13.0126 174.763 14.1698C175.974 15.3564 176.638 16.9433 176.638 18.6327C176.638 20.3027 175.988 21.87 174.807 23.0517C174.227 23.6342 173.538 24.0959 172.778 24.4102C172.019 24.7245 171.205 24.8851 170.383 24.8827ZM158.151 19.9218C158.108 19.497 158.083 19.0673 158.083 18.6327C158.083 17.8564 158.156 17.0995 158.293 16.3622C158.327 16.1864 158.234 16.0058 158.073 15.9325C157.409 15.6347 156.799 15.2245 156.272 14.707C155.65 14.1045 155.161 13.379 154.836 12.577C154.511 11.7749 154.356 10.9139 154.382 10.0488C154.426 8.48137 155.056 6.99211 156.154 5.86907C157.36 4.63371 158.982 3.95989 160.705 3.97942C162.263 3.99407 163.767 4.59465 164.904 5.6591C165.29 6.02043 165.622 6.42082 165.901 6.85051C165.998 7.00188 166.189 7.06535 166.355 7.00676C167.214 6.70891 168.122 6.49895 169.055 6.40129C169.328 6.37199 169.484 6.07903 169.362 5.83489C167.776 2.69524 164.533 0.527269 160.783 0.468675C155.368 0.385667 150.857 4.82414 150.857 10.2294C150.857 13.2958 152.268 16.0302 154.48 17.8222C152.927 18.54 151.496 19.5312 150.256 20.7714C147.58 23.4423 146.067 26.9677 145.969 30.7323C145.968 30.7845 145.977 30.8363 145.996 30.8848C146.015 30.9334 146.043 30.9776 146.08 31.0149C146.116 31.0522 146.16 31.0819 146.208 31.1021C146.256 31.1223 146.307 31.1328 146.359 31.1327H149.099C149.309 31.1327 149.484 30.9667 149.489 30.7568C149.582 27.9247 150.73 25.2734 152.746 23.2616C154.182 21.8261 155.94 20.83 157.859 20.3466C158.049 20.2978 158.176 20.1171 158.151 19.9218Z" fill="#003378"/>
</svg>
