<svg width="68" height="20" viewBox="0 0 68 20" fill="none" xmlns="http://www.w3.org/2000/svg">
<rect x="0.5" y="0.5" width="67" height="19" rx="9.5" stroke="#04D400"/>
<path d="M15.692 5.136H17.06V5.472C17.06 7.452 15.416 9.072 12.56 9.468L11.972 8.22C14.468 7.92 15.692 6.636 15.692 5.472V5.136ZM15.956 5.136H17.324V5.472C17.324 6.636 18.548 7.92 21.032 8.22L20.456 9.468C17.6 9.072 15.956 7.44 15.956 5.472V5.136ZM11.48 10.056H21.524V11.316H11.48V10.056ZM16.484 12.048C18.884 12.048 20.336 12.78 20.336 14.064C20.336 15.36 18.884 16.08 16.484 16.08C14.072 16.08 12.62 15.36 12.62 14.064C12.62 12.78 14.072 12.048 16.484 12.048ZM16.484 13.248C14.996 13.248 14.24 13.512 14.24 14.064C14.24 14.628 14.996 14.88 16.484 14.88C17.972 14.88 18.728 14.628 18.728 14.064C18.728 13.512 17.972 13.248 16.484 13.248ZM30.1511 4.968H31.7591V12.948H30.1511V4.968ZM24.3551 14.604H32.0351V15.876H24.3551V14.604ZM24.3551 12.144H25.9511V15.12H24.3551V12.144ZM25.7111 5.664C27.4151 5.664 28.7231 6.84 28.7231 8.484C28.7231 10.116 27.4151 11.304 25.7111 11.304C24.0071 11.304 22.6871 10.116 22.6871 8.484C22.6871 6.84 24.0071 5.664 25.7111 5.664ZM25.7111 7.044C24.8831 7.044 24.2471 7.572 24.2471 8.484C24.2471 9.384 24.8831 9.912 25.7111 9.912C26.5271 9.912 27.1631 9.384 27.1631 8.484C27.1631 7.572 26.5271 7.044 25.7111 7.044ZM38.8089 9.456H40.4049V11.136H38.8089V9.456ZM39.5889 5.4C41.1969 5.4 42.3609 6.324 42.3609 7.668C42.3609 8.988 41.1969 9.912 39.5889 9.912C37.9809 9.912 36.8169 8.988 36.8169 7.668C36.8169 6.324 37.9809 5.4 39.5889 5.4ZM39.5889 6.6C38.8329 6.6 38.3049 6.984 38.3049 7.668C38.3049 8.34 38.8329 8.724 39.5889 8.724C40.3569 8.724 40.8729 8.34 40.8729 7.668C40.8729 6.984 40.3569 6.6 39.5889 6.6ZM43.5009 4.968H45.0969V13.44H43.5009V4.968ZM44.5329 8.448H46.4889V9.756H44.5329V8.448ZM37.6809 14.592H45.4689V15.876H37.6809V14.592ZM37.6809 12.708H39.2889V15.144H37.6809V12.708ZM36.4209 12L36.2409 10.728C38.1249 10.728 40.7289 10.716 42.9129 10.404L43.0209 11.544C40.7769 11.964 38.2569 12 36.4209 12ZM49.8719 11.436H51.4319V14.052H49.8719V11.436ZM53.3879 11.424H54.9479V14.052H53.3879V11.424ZM47.3279 13.548H57.3839V14.844H47.3279V13.548ZM48.4559 5.676H56.2559V9.36H50.0639V11.244H48.4799V8.112H54.6719V6.936H48.4559V5.676ZM48.4799 10.572H56.5079V11.856H48.4799V10.572Z" fill="#04D400"/>
</svg>
