<svg width="67" height="20" viewBox="0 0 67 20" fill="none" xmlns="http://www.w3.org/2000/svg">
<rect x="0.5" y="0.5" width="66" height="19" rx="9.5" stroke="#FF5C5C"/>
<path d="M14.692 5.136H16.06V5.472C16.06 7.452 14.416 9.072 11.56 9.468L10.972 8.22C13.468 7.92 14.692 6.636 14.692 5.472V5.136ZM14.956 5.136H16.324V5.472C16.324 6.636 17.548 7.92 20.032 8.22L19.456 9.468C16.6 9.072 14.956 7.44 14.956 5.472V5.136ZM10.48 10.056H20.524V11.316H10.48V10.056ZM15.484 12.048C17.884 12.048 19.336 12.78 19.336 14.064C19.336 15.36 17.884 16.08 15.484 16.08C13.072 16.08 11.62 15.36 11.62 14.064C11.62 12.78 13.072 12.048 15.484 12.048ZM15.484 13.248C13.996 13.248 13.24 13.512 13.24 14.064C13.24 14.628 13.996 14.88 15.484 14.88C16.972 14.88 17.728 14.628 17.728 14.064C17.728 13.512 16.972 13.248 15.484 13.248ZM29.1511 4.968H30.7591V12.948H29.1511V4.968ZM23.3551 14.604H31.0351V15.876H23.3551V14.604ZM23.3551 12.144H24.9511V15.12H23.3551V12.144ZM24.7111 5.664C26.4151 5.664 27.7231 6.84 27.7231 8.484C27.7231 10.116 26.4151 11.304 24.7111 11.304C23.0071 11.304 21.6871 10.116 21.6871 8.484C21.6871 6.84 23.0071 5.664 24.7111 5.664ZM24.7111 7.044C23.8831 7.044 23.2471 7.572 23.2471 8.484C23.2471 9.384 23.8831 9.912 24.7111 9.912C25.5271 9.912 26.1631 9.384 26.1631 8.484C26.1631 7.572 25.5271 7.044 24.7111 7.044ZM42.9809 4.956H44.5769V16.068H42.9809V4.956ZM40.8329 9.216H43.7489V10.512H40.8329V9.216ZM39.3329 6.108H40.9049C40.9049 9.48 39.8369 12.228 35.9849 14.16L35.1449 12.912C38.2889 11.352 39.3329 9.336 39.3329 6.396V6.108ZM35.6729 6.108H40.1729V7.368H35.6729V6.108ZM46.3159 11.352H56.3839V12.612H46.3159V11.352ZM50.5159 11.988H52.0999V16.068H50.5159V11.988ZM47.4679 5.376H49.0519V6.636H53.6119V5.376H55.1959V10.296H47.4679V5.376ZM49.0519 7.884V9.024H53.6119V7.884H49.0519Z" fill="#FF5C5C"/>
</svg>
