<svg width="81" height="20" viewBox="0 0 81 20" fill="none" xmlns="http://www.w3.org/2000/svg">
<rect x="0.5" y="0.5" width="80" height="19" rx="9.5" stroke="#818181"/>
<path d="M14.692 5.136H16.06V5.472C16.06 7.452 14.416 9.072 11.56 9.468L10.972 8.22C13.468 7.92 14.692 6.636 14.692 5.472V5.136ZM14.956 5.136H16.324V5.472C16.324 6.636 17.548 7.92 20.032 8.22L19.456 9.468C16.6 9.072 14.956 7.44 14.956 5.472V5.136ZM10.48 10.056H20.524V11.316H10.48V10.056ZM15.484 12.048C17.884 12.048 19.336 12.78 19.336 14.064C19.336 15.36 17.884 16.08 15.484 16.08C13.072 16.08 11.62 15.36 11.62 14.064C11.62 12.78 13.072 12.048 15.484 12.048ZM15.484 13.248C13.996 13.248 13.24 13.512 13.24 14.064C13.24 14.628 13.996 14.88 15.484 14.88C16.972 14.88 17.728 14.628 17.728 14.064C17.728 13.512 16.972 13.248 15.484 13.248ZM29.1511 4.968H30.7591V12.948H29.1511V4.968ZM23.3551 14.604H31.0351V15.876H23.3551V14.604ZM23.3551 12.144H24.9511V15.12H23.3551V12.144ZM24.7111 5.664C26.4151 5.664 27.7231 6.84 27.7231 8.484C27.7231 10.116 26.4151 11.304 24.7111 11.304C23.0071 11.304 21.6871 10.116 21.6871 8.484C21.6871 6.84 23.0071 5.664 24.7111 5.664ZM24.7111 7.044C23.8831 7.044 23.2471 7.572 23.2471 8.484C23.2471 9.384 23.8831 9.912 24.7111 9.912C25.5271 9.912 26.1631 9.384 26.1631 8.484C26.1631 7.572 25.5271 7.044 24.7111 7.044ZM43.3049 4.956H44.8169V16.068H43.3049V4.956ZM41.8169 9.228H43.6649V10.512H41.8169V9.228ZM40.8209 5.148H42.2969V15.54H40.8209V5.148ZM35.5889 12.252H36.3689C37.7369 12.252 38.8769 12.204 40.1969 11.964L40.3169 13.26C38.9729 13.524 37.7969 13.56 36.3689 13.56H35.5889V12.252ZM35.5889 6.24H39.6929V7.524H37.1729V12.876H35.5889V6.24ZM53.9719 4.956H55.5799V16.068H53.9719V4.956ZM50.6959 6.108H52.2799C52.2799 9.504 51.1279 12.288 47.1799 14.196L46.3519 12.924C49.5439 11.388 50.6959 9.372 50.6959 6.396V6.108ZM46.9399 6.108H51.4519V7.368H46.9399V6.108ZM64.2978 10.536H65.8938V12.492H64.2978V10.536ZM60.0738 10.008H70.1178V11.268H60.0738V10.008ZM65.0778 12.06C67.4778 12.06 68.9298 12.78 68.9298 14.064C68.9298 15.348 67.4778 16.068 65.0778 16.068C62.6658 16.068 61.2138 15.348 61.2138 14.064C61.2138 12.78 62.6658 12.06 65.0778 12.06ZM65.0778 13.26C63.5898 13.26 62.8338 13.512 62.8338 14.064C62.8338 14.604 63.5898 14.868 65.0778 14.868C66.5658 14.868 67.3218 14.604 67.3218 14.064C67.3218 13.512 66.5658 13.26 65.0778 13.26ZM63.9978 6H65.4138V6.276C65.4138 7.944 63.9138 9.312 61.0458 9.576L60.4938 8.328C62.9298 8.124 63.9978 7.14 63.9978 6.276V6ZM64.7778 6H66.1938V6.276C66.1938 7.152 67.2498 8.124 69.6978 8.328L69.1458 9.576C66.2898 9.312 64.7778 7.956 64.7778 6.276V6ZM60.9858 5.412H69.2178V6.672H60.9858V5.412Z" fill="#818181"/>
</svg>
